<svg width="110" height="127" viewBox="0 0 110 127" fill="none" xmlns="http://www.w3.org/2000/svg">
<g clip-path="url(#clip0)">
<path d="M55.3055 126.151C49.0236 126.189 42.7516 126.246 36.4695 126.254C28.7489 126.261 23.8964 121.495 23.8215 113.843C23.7762 109.518 23.7799 105.203 23.7346 100.878C23.6944 97.4144 22.2674 96.0431 18.8225 95.9658C16.875 95.9284 14.8406 96.0873 13.0077 95.5796C7.43086 94.0569 4.47098 89.9745 4.03527 84.1745C3.20676 73.2101 2.14348 62.2569 1.36384 51.2825C-0.569415 24.042 20.2666 1.55867 47.6348 1.35665C54.3081 1.30715 61.0201 1.18892 67.6577 1.73653C85.7791 3.22368 102.372 17.5288 106.987 35.0757C108.629 41.309 108.931 47.5404 108.323 53.9631C107.393 63.7735 106.943 73.6397 106.277 83.4779C105.873 89.4591 102.932 93.4788 97.4614 95.0672C95.6347 95.5967 93.5986 95.4816 91.6517 95.5323C88.0122 95.6421 86.825 96.7451 86.8077 100.415C86.7845 104.74 86.8689 109.055 86.875 113.38C86.8712 120.954 81.9301 125.973 74.3764 126.048C68.0163 126.105 61.656 126.123 55.2958 126.161C55.3055 126.161 55.3055 126.151 55.3055 126.151ZM31.988 106.563C31.9391 106.563 31.8805 106.574 31.8315 106.574C31.8398 107.963 31.848 109.343 31.8563 110.732C31.899 117.915 32.5581 118.498 39.7194 118.24C41.5097 118.18 41.9163 117.444 41.8579 115.84C41.7651 113.404 41.7015 110.938 41.9317 108.52C42.1618 106.072 44.0996 104.475 46.1358 104.63C48.2798 104.793 49.787 106.496 49.8706 109.02C49.9531 111.378 49.977 113.746 49.9226 116.114C49.8922 117.592 50.5024 118.176 51.9504 118.138C54.1517 118.076 56.3532 118.053 58.5553 118.108C60.1407 118.148 60.7335 117.459 60.6949 115.904C60.6309 113.379 60.5865 110.845 60.7477 108.329C60.8908 106.078 62.7988 104.403 64.7564 104.499C66.8707 104.604 68.4068 106.219 68.5185 108.547C68.5859 110.015 68.5359 111.483 68.574 112.95C68.7051 118.527 67.665 118.044 73.6533 118.009C77.6847 117.985 78.803 116.804 78.7784 112.674C78.762 108.271 78.6869 103.868 78.7096 99.4648C78.7394 92.9574 83.4459 87.9976 89.941 87.6067C91.4083 87.5197 92.8864 87.6087 94.3435 87.463C96.72 87.2336 97.9547 85.8857 98.1361 83.4774C98.8692 73.4823 99.7784 63.4861 100.247 53.4828C100.473 48.6475 100.385 43.6673 99.5051 38.9267C96.8859 24.6754 83.4037 11.8489 69.0385 10.1339C61.9587 9.28554 54.7387 9.534 47.5851 9.44936C41.2829 9.36945 35.2442 10.8047 29.7435 13.8709C16.3821 21.3285 9.11159 32.8303 9.26132 48.1238C9.36435 58.8576 10.8372 69.5735 11.7425 80.2928C12.374 87.7454 12.4328 87.7646 19.8708 87.9552C25.733 88.1062 30.2353 91.5728 31.3655 97.3296C31.9509 100.33 31.8033 103.472 31.988 106.563Z" fill="black"/>
<path d="M31.988 106.563C31.8033 103.482 31.9509 100.33 31.3655 97.3295C30.2353 91.5727 25.733 88.1062 19.8708 87.9551C12.423 87.7646 12.374 87.7453 11.7425 80.2927C10.8372 69.5735 9.36434 58.8576 9.26131 48.1237C9.12137 32.8302 16.3821 21.3382 29.7435 13.8708C35.2442 10.8046 41.2829 9.36942 47.5851 9.44933C54.7484 9.53391 61.9685 9.28545 69.0483 10.1338C83.4037 11.8488 96.8859 24.6754 99.5048 38.8876C100.375 43.6282 100.463 48.6084 100.247 53.4436C99.788 63.4567 98.869 73.4431 98.1358 83.4382C97.9642 85.8464 96.7295 87.1944 94.3433 87.4239C92.8861 87.5597 91.408 87.4707 89.9408 87.5675C83.4457 87.9682 78.7391 92.9182 78.7094 99.4256C78.6866 103.829 78.7618 108.232 78.7782 112.635C78.793 116.765 77.6845 117.945 73.6531 117.969C67.6647 118.005 68.7049 118.498 68.5738 112.911C68.5357 111.444 68.5857 109.976 68.5182 108.508C68.4065 106.18 66.8704 104.565 64.7562 104.46C62.7985 104.364 60.8906 106.039 60.7474 108.29C60.5863 110.806 60.6307 113.34 60.6947 115.864C60.7333 117.42 60.1405 118.109 58.555 118.069C56.3531 118.023 54.1515 118.046 51.9501 118.099C50.5021 118.137 49.892 117.553 49.9223 116.075C49.9768 113.717 49.9529 111.349 49.8703 108.981C49.7868 106.457 48.2795 104.754 46.1356 104.59C44.0895 104.436 42.1616 106.043 41.9315 108.481C41.7013 110.899 41.7648 113.364 41.8576 115.8C41.9162 117.415 41.5095 118.141 39.7192 118.201C32.5579 118.459 31.8988 117.875 31.856 110.693C31.8478 109.304 31.8396 107.924 31.8313 106.535C31.8804 106.564 31.9293 106.563 31.988 106.563ZM22.5053 58.7402C22.5693 66.2158 28.6815 72.1876 36.1471 72.0844C43.5637 71.9816 49.5546 65.8008 49.4711 58.3449C49.3877 50.8988 43.266 44.9858 35.7418 45.0893C28.1294 45.1835 22.4302 51.069 22.5053 58.7402ZM60.5781 58.4549C60.6424 65.9794 66.6369 71.903 74.1615 71.868C81.4709 71.8343 87.6471 65.5251 87.5739 58.167C87.5001 50.6915 81.4372 44.788 73.8736 44.8525C66.2708 44.9174 60.5227 50.7934 60.5781 58.4549ZM54.9825 89.9674C59.6306 89.9887 61.0875 88.1502 60.0715 83.5082C59.7294 81.9153 59.397 80.3222 59.0157 78.7393C58.5441 76.7655 57.2947 75.6574 55.2295 75.5718C53.1448 75.4864 51.8006 76.5316 51.2446 78.4724C50.7367 80.2661 50.3856 82.1079 50.0149 83.9497C49.198 88.0937 50.7453 89.9437 54.9825 89.9674Z" fill="white"/>
<path d="M22.5047 58.7402C22.4395 51.069 28.1386 45.1835 35.7314 45.0796C43.2556 44.9761 49.3773 50.8891 49.4607 58.3352C49.5442 65.791 43.5533 71.9719 36.1367 72.0747C28.6712 72.1876 22.5688 66.2158 22.5047 58.7402Z" fill="black"/>
<path d="M60.5776 58.4549C60.5124 50.7935 66.2605 44.9077 73.8731 44.8526C81.4367 44.788 87.4996 50.6916 87.5734 58.1671C87.6466 65.5252 81.4705 71.8343 74.1611 71.868C66.6364 71.903 60.642 65.9794 60.5776 58.4549Z" fill="black"/>
<path d="M54.9824 89.9675C50.7453 89.9437 49.198 88.0937 50.0246 83.9497C50.3954 82.1176 50.7465 80.2759 51.2543 78.4724C51.8006 76.5316 53.1545 75.4863 55.2393 75.5718C57.3045 75.6573 58.5538 76.7654 59.0254 78.7393C59.4067 80.3222 59.7293 81.9153 60.0813 83.5082C61.0874 88.1502 59.6306 89.9887 54.9824 89.9675Z" fill="black"/>
</g>
<defs>
<clipPath id="clip0">
<rect x="0.960938" y="1.62463" width="107.382" height="124.868" transform="rotate(-0.34099 0.960938 1.62463)" fill="white"/>
</clipPath>
</defs>
</svg>
